<?xml version="1.0" encoding="utf-8"?>
<!-- Generator: Adobe Illustrator 24.0.3, SVG Export Plug-In . SVG Version: 6.00 Build 0)  -->
<svg version="1.1" xmlns="http://www.w3.org/2000/svg" xmlns:xlink="http://www.w3.org/1999/xlink" x="0px" y="0px"
	 viewBox="0 0 595.3 841.9" style="enable-background:new 0 0 595.3 841.9;" xml:space="preserve">
<style type="text/css">
	.st0{display:none;}
	.st1{display:inline;fill:none;stroke:#020203;stroke-width:3.5016;stroke-linecap:round;stroke-miterlimit:10;}
	.st2{display:inline;fill:none;stroke:#020203;stroke-width:1.7508;stroke-linecap:round;stroke-miterlimit:10;}
	.st3{display:inline;fill:none;stroke:#020203;stroke-width:2.8013;stroke-linecap:round;stroke-miterlimit:10;}
	.st4{display:inline;fill:none;stroke:#020203;stroke-width:1.4006;stroke-linecap:round;stroke-miterlimit:10;}
	.st5{fill:none;stroke:#020203;stroke-width:3.5016;stroke-linecap:round;stroke-miterlimit:10;}
	.st6{fill:none;stroke:#020203;stroke-width:2.4511;stroke-linecap:round;stroke-miterlimit:10;}
	.st7{fill:none;stroke:#020203;stroke-width:2.8013;stroke-linecap:round;stroke-miterlimit:10;}
	.st8{fill:none;stroke:#020203;stroke-width:2.101;stroke-linecap:round;stroke-miterlimit:10;}
</style>
<g id="Capa_1" class="st0">
	<path class="st1" d="M229.1,227v42c0,28-14,42-42,42s-42-14-42-42v-42H229.1z"/>
	<line class="st1" x1="145" y1="248" x2="124" y2="227"/>
	<line class="st1" x1="124" y1="227" x2="124" y2="206"/>
	<line class="st1" x1="124" y1="206" x2="124" y2="206"/>
	<line class="st1" x1="124" y1="206" x2="187" y2="206"/>
	<path class="st1" d="M188.9,206.3c1.3-17.8,12.7-31.9,27.1-33.4c14.4-1.6,27.6,9.9,31.3,27.1s-3.1,35.3-16.2,42.8"/>
	<circle class="st1" cx="166" cy="248" r="3.5"/>
	<circle class="st1" cx="208.1" cy="248" r="3.5"/>
	<polygon class="st1" points="187,269 187,276.1 194.1,276.1 	"/>
	<path class="st1" d="M205.6,287.6c-10.3,10.3-26.9,10.3-37.1,0"/>
	<path class="st1" d="M236.1,427.1v42c0,28-14,42-42,42s-42-14-42-42v-42H236.1z"/>
	<path class="st1" d="M215.1,406.1c28,0,42,14,42,42v84H131v-84c0-28,14-42,42-42H215.1z"/>
	<line class="st1" x1="215.1" y1="532.1" x2="215.1" y2="511.1"/>
	<line class="st1" x1="173" y1="532.1" x2="173" y2="511.1"/>
	<path class="st1" d="M194,427.1c0,23.2-18.8,42-42,42"/>
	<path class="st1" d="M236.1,469.1c-23.2,0-42-18.8-42-42"/>
	<circle class="st1" cx="208.1" cy="467.4" r="1.8"/>
	<circle class="st1" cx="180" cy="467.4" r="1.8"/>
	<circle class="st1" cx="194" cy="476.1" r="0.7"/>
	<path class="st1" d="M212.6,487.7c-10.3,10.3-26.9,10.3-37.1,0"/>
	<path class="st1" d="M211.5,511.4c-8.9,13.7-23.3,13.7-32.2,0"/>
	<path class="st2" d="M350.1,384.1v52.5c0,21-10.5,31.5-31.5,31.5h-21c-21,0-31.5-10.5-31.5-31.5v-52.5H350.1z"/>
	<line class="st2" x1="287.1" y1="510.2" x2="245.1" y2="510.2"/>
	<line class="st2" x1="245.1" y1="510.2" x2="245.1" y2="384.1"/>
	<line class="st2" x1="287.1" y1="489.1" x2="287.1" y2="468.1"/>
	<path class="st2" d="M245.1,384.1c0-11.6,9.4-21,21-21"/>
	<line class="st2" x1="266.1" y1="363.1" x2="350.1" y2="363.1"/>
	<path class="st2" d="M346.5,363.4c6.1-1.1,12.4,0.6,17.2,4.6c4.8,4,7.5,9.9,7.5,16.1"/>
	<line class="st2" x1="308.1" y1="384.1" x2="308.1" y2="363.1"/>
	<line class="st2" x1="371.2" y1="384.1" x2="371.2" y2="510.2"/>
	<line class="st2" x1="371.2" y1="510.2" x2="329.1" y2="510.2"/>
	<line class="st2" x1="329.1" y1="489.1" x2="329.1" y2="468.1"/>
	<path class="st2" d="M266.1,436.6c-5.8,0-10.5-4.7-10.5-10.5s4.7-10.5,10.5-10.5"/>
	<path class="st2" d="M350.1,415.6c5.8,0,10.5,4.7,10.5,10.5s-4.7,10.5-10.5,10.5"/>
	<path class="st2" d="M353.7,433.1c2.1,0,4,1.2,4.8,3.2c0.8,1.9,0.4,4.2-1,5.7c-1.4,1.5-3.6,2-5.6,1.3"/>
	<path class="st2" d="M264.4,443.3c-2,0.7-4.2,0.2-5.6-1.3c-1.4-1.5-1.8-3.8-1-5.7c0.8-1.9,2.7-3.2,4.8-3.2"/>
	<line class="st2" x1="355.4" y1="419.1" x2="357.2" y2="415.6"/>
	<path class="st2" d="M302.9,433.1c0-2.9,2.4-5.3,5.3-5.3s5.3,2.4,5.3,5.3"/>
	<circle class="st2" cx="287.1" cy="415.6" r="3.5"/>
	<circle class="st2" cx="329.1" cy="415.6" r="3.5"/>
	<line class="st2" x1="290.6" y1="405.1" x2="283.6" y2="403.4"/>
	<line class="st2" x1="283.6" y1="403.4" x2="281.9" y2="405.1"/>
	<line class="st2" x1="325.6" y1="405.1" x2="332.6" y2="403.4"/>
	<line class="st2" x1="332.6" y1="403.4" x2="334.4" y2="405.1"/>
	<line class="st2" x1="283.6" y1="412.1" x2="281.9" y2="410.4"/>
	<line class="st2" x1="287.1" y1="412.1" x2="287.1" y2="408.6"/>
	<line class="st2" x1="288.9" y1="412.1" x2="292.4" y2="410.4"/>
	<path class="st2" d="M323.9,443.6c0,2.9-2.4,5.3-5.3,5.3"/>
	<path class="st1" d="M417.2,123c28,0,42,14,42,42v28c0,28-14,42-42,42s-42-14-42-42v-28C375.2,137,389.2,123,417.2,123z"/>
	<path class="st1" d="M417.2,109c37.3,0,56,18.7,56,56v98H361.2v-98C361.2,127.7,379.9,109,417.2,109z"/>
	<path class="st1" d="M417.2,109c0,30.9-25.1,56-56,56"/>
	<path class="st1" d="M473.2,165c-30.9,0-56-25.1-56-56"/>
	<path class="st1" d="M399.7,158c2.3,0,3.5,1.2,3.5,3.5v7c0,2.3-1.2,3.5-3.5,3.5s-3.5-1.2-3.5-3.5v-7
		C396.2,159.2,397.4,158,399.7,158z"/>
	<path class="st1" d="M434.7,158c2.3,0,3.5,1.2,3.5,3.5v7c0,2.3-1.2,3.5-3.5,3.5s-3.5-1.2-3.5-3.5v-7
		C431.2,159.2,432.4,158,434.7,158z"/>
	<rect x="403.2" y="193.8" class="st1" width="28" height="5.6"/>
	<line class="st1" x1="396.2" y1="193.8" x2="438.2" y2="193.8"/>
	<path class="st1" d="M438.2,193.8c0,11.6-9.4,21-21,21c-11.6,0-21-9.4-21-21"/>
	<line class="st1" x1="413.7" y1="183.2" x2="420.7" y2="183.2"/>
	<path class="st1" d="M410.2,183.2c0-3.9,3.1-7,7-7c3.9,0,7,3.1,7,7"/>
	<path class="st1" d="M415,276.2v42c0,28-14,42-42,42h-42v-84H415z"/>
	<line class="st1" x1="331" y1="318.3" x2="310" y2="318.3"/>
	<line class="st1" x1="310" y1="318.3" x2="310" y2="255.2"/>
	<line class="st1" x1="310" y1="255.2" x2="331" y2="255.2"/>
	<path class="st1" d="M352,234.2c0,11.6-9.4,21-21,21"/>
	<line class="st1" x1="352" y1="234.2" x2="436" y2="234.2"/>
	<line class="st1" x1="436" y1="234.2" x2="436" y2="318.3"/>
	<line class="st1" x1="436" y1="318.3" x2="415" y2="318.3"/>
	<line class="st1" x1="331" y1="297.3" x2="345" y2="297.3"/>
	<circle class="st1" cx="352" cy="297.3" r="7"/>
	<line class="st1" x1="359" y1="297.3" x2="366" y2="297.3"/>
	<circle class="st1" cx="376.5" cy="297.3" r="7"/>
	<line class="st1" x1="387" y1="297.3" x2="415" y2="297.3"/>
	<line class="st1" x1="352" y1="297.3" x2="352" y2="297.3"/>
	<line class="st1" x1="376.5" y1="297.3" x2="376.5" y2="297.3"/>
	<path class="st1" d="M371.6,335.8c0,5.8-4.7,10.5-10.5,10.5s-10.5-4.7-10.5-10.5"/>
	<line class="st1" x1="397.9" y1="555.7" x2="408.4" y2="555.7"/>
	<polygon class="st1" points="400,545.2 403.1,549.4 406.3,545.2 	"/>
	<path class="st1" d="M445.1,513.7c0,14.9-17.5,59.5-42,57.8"/>
	<path class="st1" d="M361.1,513.7c-3.5,6.1,17.5,59.5,42,57.8"/>
	<path class="st1" d="M392.6,524.2c-3.5-13.1-19.3-12.3-21-10.5"/>
	<circle class="st3" cx="382.1" cy="520" r="5.3"/>
	<line class="st4" x1="418.9" y1="566.3" x2="418.9" y2="587.3"/>
	<line class="st4" x1="387.4" y1="566.3" x2="387.4" y2="587.3"/>
	<path class="st4" d="M382.1,482.2c3.5,17.5,8.8,29.8,21,42"/>
	<path class="st4" d="M397.9,498c2.6,8.8,11.4,21.9,21,26.3"/>
	<path class="st4" d="M413.6,506.4c0,3.5,10.5,14.9,21,17.9"/>
	<path class="st4" d="M382.1,482.2c-6.7,0-22.4,35-18.9,42"/>
	<line class="st4" x1="387.4" y1="504.3" x2="371.6" y2="503.2"/>
	<line class="st4" x1="387.4" y1="587.3" x2="371.6" y2="587.3"/>
	<line class="st4" x1="418.9" y1="587.3" x2="434.6" y2="587.3"/>
	<line class="st4" x1="452.5" y1="524.2" x2="452.5" y2="587.3"/>
	<line class="st4" x1="352.7" y1="524.2" x2="352.7" y2="587.3"/>
	<path class="st4" d="M361.1,513.7c-16.6-12.3-10.5,24.5,5.3,21"/>
	<path class="st4" d="M352.7,510.6c-4.4-10.5,15.8-51.6,24.2-49.4"/>
	<path class="st4" d="M379,461.2c8.2-21,78.3-8.8,73.5,63"/>
	<path class="st4" d="M436,587.3c-5,13.8-18.2,23-32.9,23s-27.9-9.2-32.9-23"/>
	<circle class="st4" cx="413.6" cy="550.5" r="0.2"/>
	<circle class="st4" cx="362.2" cy="532.1" r="0.5"/>
	<line class="st4" x1="362.2" y1="532.1" x2="362.2" y2="545.2"/>
</g>
<g id="Capa_2">
	<path class="st5" d="M350.1,552.2v42c0,28-14,42-42,42s-42-14-42-42v-42H350.1z"/>
	<line class="st5" x1="308.1" y1="657.2" x2="245.1" y2="657.2"/>
	<line class="st5" x1="308.1" y1="657.2" x2="371.2" y2="657.2"/>
	<line class="st5" x1="245.1" y1="657.2" x2="245.1" y2="552.2"/>
	<line class="st5" x1="245.1" y1="552.2" x2="266.1" y2="531.2"/>
	<line class="st5" x1="266.1" y1="531.2" x2="350.1" y2="531.2"/>
	<line class="st5" x1="350.1" y1="531.2" x2="371.2" y2="552.2"/>
	<line class="st5" x1="371.2" y1="552.2" x2="371.2" y2="657.2"/>
	<path class="st5" d="M287.1,573.2c4.7,0,7,2.3,7,7v7c0,4.7-2.3,7-7,7s-7-2.3-7-7v-7C280.1,575.5,282.4,573.2,287.1,573.2z"/>
	<path class="st5" d="M329.1,573.2c4.7,0,7,2.3,7,7v7c0,4.7-2.3,7-7,7s-7-2.3-7-7v-7C322.1,575.5,324.5,573.2,329.1,573.2z"/>
	<path class="st5" d="M329.1,604.7c0,11.6-9.4,21-21,21c-11.6,0-21-9.4-21-21"/>
	<path class="st5" d="M301.1,601.2c0-3.9,3.1-7,7-7s7,3.1,7,7"/>
	<ellipse class="st5" cx="287.1" cy="583.7" rx="1.8" ry="3.5"/>
	<ellipse class="st5" cx="329.1" cy="583.7" rx="1.8" ry="3.5"/>
	<line class="st6" x1="464.6" y1="383" x2="464.6" y2="427.1"/>
	<line class="st6" x1="464.6" y1="427.1" x2="435.2" y2="456.5"/>
	<line class="st6" x1="435.2" y1="456.5" x2="405.8" y2="427.1"/>
	<line class="st6" x1="405.8" y1="427.1" x2="405.8" y2="383"/>
	<path class="st6" d="M435.2,368.3c0-8.1,6.6-14.7,14.7-14.7"/>
	<line class="st6" x1="449.9" y1="353.6" x2="464.6" y2="353.6"/>
	<path class="st6" d="M464.6,353.6c8.1,0,14.7,6.6,14.7,14.7"/>
	<line class="st6" x1="479.3" y1="368.3" x2="494" y2="471.3"/>
	<line class="st6" x1="449.9" y1="397.7" x2="449.9" y2="397.7"/>
	<line class="st6" x1="420.5" y1="397.7" x2="420.5" y2="397.7"/>
	<path class="st6" d="M391.1,368.3c0-8.1,6.6-14.7,14.7-14.7"/>
	<line class="st6" x1="420.5" y1="353.6" x2="405.8" y2="353.6"/>
	<path class="st6" d="M420.5,353.6c8.1,0,14.7,6.6,14.7,14.7"/>
	<line class="st6" x1="391.1" y1="368.3" x2="376.4" y2="471.3"/>
	<path class="st6" d="M449.9,422.2c0,8.1-6.6,14.7-14.7,14.7s-14.7-6.6-14.7-14.7"/>
	<path class="st7" d="M266.5,281.1c22.4,0,33.6,11.2,33.6,33.6V410c0,3.7-1.9,5.6-5.6,5.6H171.2c-3.7,0-5.6-1.9-5.6-5.6v-95.2
		c0-22.4,11.2-33.6,33.6-33.6H266.5z"/>
	<line class="st7" x1="176.8" y1="337.2" x2="176.8" y2="370.8"/>
	<line class="st7" x1="288.9" y1="337.2" x2="288.9" y2="370.8"/>
	<path class="st7" d="M288.9,370.8c0,12.4-10,22.4-22.4,22.4"/>
	<path class="st7" d="M199.2,393.2c-12.4,0-22.4-10-22.4-22.4"/>
	<line class="st7" x1="199.2" y1="393.2" x2="255.3" y2="393.2"/>
	<line class="st7" x1="266.5" y1="393.2" x2="255.3" y2="393.2"/>
	<line class="st7" x1="255.3" y1="393.2" x2="255.3" y2="415.6"/>
	<line class="st7" x1="210.4" y1="393.2" x2="210.4" y2="415.6"/>
	<path class="st7" d="M232.8,292.4c0,24.8-20.1,44.8-44.8,44.8"/>
	<path class="st7" d="M277.7,337.2c-24.8,0-44.8-20.1-44.8-44.8"/>
	<line class="st7" x1="176.8" y1="337.2" x2="188" y2="337.2"/>
	<line class="st7" x1="288.9" y1="337.2" x2="277.7" y2="337.2"/>
	<path class="st7" d="M213.2,348.4c0,1.5-1.3,2.8-2.8,2.8s-2.8-1.3-2.8-2.8s1.3-2.8,2.8-2.8S213.2,346.8,213.2,348.4"/>
	<path class="st7" d="M258.1,348.4c0,1.5-1.3,2.8-2.8,2.8s-2.8-1.3-2.8-2.8s1.3-2.8,2.8-2.8S258.1,346.8,258.1,348.4"/>
	<line class="st7" x1="210.4" y1="348.4" x2="210.4" y2="348.4"/>
	<line class="st7" x1="255.3" y1="348.4" x2="255.3" y2="348.4"/>
	<line class="st7" x1="232.8" y1="354" x2="232.8" y2="358.5"/>
	<path class="st7" d="M229.5,362.9c0-1.5,1.3-2.8,2.8-2.8"/>
	<path class="st7" d="M246.9,370.8c0,4.6-3.8,8.4-8.4,8.4"/>
	<line class="st7" x1="238.4" y1="379.2" x2="224.4" y2="379.2"/>
	<line class="st7" x1="207.6" y1="347.3" x2="204.8" y2="345"/>
	<line class="st7" x1="258.1" y1="347.3" x2="260.9" y2="345"/>
	<path class="st8" d="M352,174v58.8c0,16.8-8.4,25.2-25.2,25.2h-33.6c-16.8,0-25.2-8.4-25.2-25.2V174H352z"/>
	<circle class="st8" cx="331" cy="216" r="2.1"/>
	<circle class="st8" cx="289" cy="216" r="2.1"/>
	<path class="st8" d="M310,228.6c-2.3,0-4.2-1.9-4.2-4.2s1.9-4.2,4.2-4.2"/>
	<path class="st8" d="M331,237c0,5.8-9.4,10.5-21,10.5c-11.6,0-21-4.7-21-10.5"/>
	<path class="st8" d="M347.8,153c16.8,0,25.2,8.4,25.2,25.2V279H246.9V178.2c0-16.8,8.4-25.2,25.2-25.2H347.8z"/>
	<path class="st8" d="M310,174c0,23.2-18.8,42-42,42"/>
	<path class="st8" d="M352,216c-23.2,0-42-18.8-42-42"/>
</g>
</svg>
